<svg xmlns="http://www.w3.org/2000/svg" width="100" height="68.488" viewBox="0 0 26.458 18.121"><path d="m1225.014-162.85-16.095 15.862 2.225 2.258 16.095-15.864zm-6.996 3.106c-2.543.015-5.61.873-10.33 3.28-4.258 2.17-3.64 3.608 2.974 6.813l2.893-2.852a4.65 4.65 0 0 1 .73-4.242 4.65 4.65 0 0 1 3.419-1.8 4.7 4.7 0 0 1 1.719.26l1.194-1.177a11.8 11.8 0 0 0-2.597-.282zm7.425 1.866-2.953 2.91a4.65 4.65 0 0 1-.842 3.91 4.65 4.65 0 0 1-4.804 1.655l-1.27 1.252c4.37.562 9.111-.53 12.214-2.407 4.195-2.54 6.052-4.344-1.499-7.01-.301-.107-.56-.205-.846-.31zm-7.632.732a3.3 3.3 0 0 0-2.415 1.272 3.3 3.3 0 0 0-.658 2.206l3.502-3.451a3 3 0 0 0-.429-.027zm3.467 3.373-3.21 3.165a3.29 3.29 0 0 0 2.528-1.25 3.3 3.3 0 0 0 .682-1.915z" style="fill:#000;fill-opacity:1;stroke:#000;stroke-width:0;stroke-dasharray:none" transform="translate(-1204.986 162.85)"/></svg>