<svg xmlns="http://www.w3.org/2000/svg" width="100" height="44.369" viewBox="0 0 26.458 11.739"><path d="M1169.575-160.46c-2.542.015-5.608.873-10.327 3.28-4.369 2.226-3.621 3.676 3.493 7.064 5.213 2.482 12.407 1.379 16.602-1.16v-.001c4.194-2.54 6.051-4.342-1.498-7.008-3.18-1.123-5.388-2.19-8.268-2.174zm-.313 1.198a4.65 4.65 0 0 1 3.104.962 4.65 4.65 0 0 1 .839 6.524 4.65 4.65 0 0 1-6.524.838 4.65 4.65 0 0 1-.838-6.523 4.65 4.65 0 0 1 3.419-1.801zm.107 1.399a3.3 3.3 0 0 0-2.415 1.272 3.285 3.285 0 0 0 .592 4.607 3.285 3.285 0 0 0 4.607-.591v-.001a3.285 3.285 0 0 0-.592-4.607 3.3 3.3 0 0 0-2.193-.68z" style="fill:#000;fill-opacity:1;stroke:#000;stroke-width:0;stroke-dasharray:none" transform="translate(-1156.54 160.46)"/></svg>