<svg xmlns="http://www.w3.org/2000/svg" width="100.002" height="90.987" viewBox="0 0 26.459 24.074"><path d="M1279.183-162.054a8.5 8.5 0 0 0-5.666-1.753 8.5 8.5 0 0 0-6.237 3.289 8.486 8.486 0 0 0 1.535 11.902 8.49 8.49 0 0 0 9.521.573l10.395 8.296 3.24-4.06-10.207-8.147a8.486 8.486 0 0 0-2.581-10.1zm-1.218 1.448a6.42 6.425 89.967 0 1 1.164 9.004 6.42 6.425 89.967 0 1-9.011 1.162 6.42 6.425 89.967 0 1-1.162-9.005 6.42 6.425 89.967 0 1 4.72-2.488 6.42 6.425 89.967 0 1 4.29 1.326z" style="fill:#000;fill-opacity:1;stroke:#36e6ad;stroke-width:0" transform="translate(-1265.513 163.82)"/></svg>