<svg xmlns="http://www.w3.org/2000/svg" width="100" height="100" viewBox="0 0 26.458 26.458"><path d="m1067.512-174.526-2.568 3.645-4.047-1.873-.4 4.441-4.442.401 1.873 4.047-3.645 2.568 3.645 2.568-1.873 4.047 4.441.4.401 4.442 4.047-1.873 2.568 3.645 2.568-3.645 4.046 1.873.402-4.441 4.44-.401-1.872-4.047 3.645-2.568-3.645-2.568 1.873-4.047-4.441-.4-.402-4.442-4.046 1.873zm-.53 3.916a9.17 9.17 0 0 1 6.123 1.898 9.173 9.173 0 0 1 1.654 12.866v.002a9.173 9.173 0 0 1-12.867 1.651 9.173 9.173 0 0 1-1.652-12.866 9.17 9.17 0 0 1 6.743-3.551zm.011.433a8.73 8.73 0 0 0-6.417 3.38 8.73 8.73 0 0 0 1.572 12.244 8.73 8.73 0 0 0 12.246-1.571v-.002a8.73 8.73 0 0 0-1.574-12.245 8.73 8.73 0 0 0-5.828-1.806z" style="fill:#000;fill-opacity:1;stroke:#36e6ad;stroke-width:0" transform="translate(-1054.283 174.526)"/></svg>