<svg xmlns="http://www.w3.org/2000/svg" width="196.844" height="198.66" viewBox="0 0 52.082 52.562"><path d="M248.132 116.672a13.23 13.23 0 0 1-18.556 2.381 13.23 13.23 0 0 1-2.382-18.556 13.23 13.23 0 0 1 18.555-2.384 13.23 13.23 0 0 1 2.386 18.556" style="fill:#3e677c;fill-opacity:1;stroke:#cbe6ad;stroke-width:0" transform="translate(-214.845 -82.782)"/><path d="M245.797 115.097a10.583 10.583 0 0 1-14.845 1.905 10.583 10.583 0 0 1-1.906-14.845 10.583 10.583 0 0 1 14.845-1.907 10.583 10.583 0 0 1 1.908 14.845" style="fill:#333;fill-opacity:1;stroke:#cbe6ad;stroke-width:0" transform="translate(-214.845 -82.782)"/><path d="M241.65 111.765a5.29 5.29 0 0 1-7.422.952 5.29 5.29 0 0 1-.953-7.422 5.29 5.29 0 0 1 7.422-.954 5.29 5.29 0 0 1 .954 7.423" style="fill:#f5f5f5;fill-opacity:1;stroke:#cbe6ad;stroke-width:0" transform="translate(-214.845 -82.782)"/><path d="M243.19 87.187a16.266 16.25 0 0 0-13.582 7.693 16.48 16.48 0 0 1 18.077 1.337 16.48 16.48 0 0 1 4.436 20.85 17 17 0 0 0 .774-.453 16.266 16.25 0 0 0 5.436-6.652 16.266 16.25 0 0 0-8.362-21.408 16.266 16.25 0 0 0-6.779-1.367z" style="fill:#3e677c;fill-opacity:1;stroke:#cbe6ad;stroke-width:0" transform="translate(-214.845 -82.782)"/><path d="M266.827 106.552a22.3 22.3 0 0 0-.446-7.001 24.73 24.73 0 0 1-7.696 17.815 24.73 24.73 0 0 1-28.35 3.977 22.26 22.26 0 0 0 29.625-.83 22.26 22.26 0 0 0 6.867-13.96z" style="fill:#4daa57;fill-opacity:1;stroke:#cbe6ad;stroke-width:0" transform="translate(-214.845 -82.782)"/><path d="M264.04 98.196a19.6 19.6 0 0 1 .374 6.156 21.74 21.74 0 0 0-8.657-14.7 21.74 21.74 0 0 0-25.163-.377 19.57 19.57 0 0 1 25.932-2.507 19.57 19.57 0 0 1 7.514 11.428z" style="fill:#4daa57;fill-opacity:1;stroke:#cbe6ad;stroke-width:0" transform="translate(-214.845 -82.782)"/><path d="M237.37 82.782a26.46 26.46 0 0 0-17.005 9.93 26.46 26.46 0 0 0 4.765 37.111 26.46 26.46 0 0 0 37.113-4.763l.004-.006a26.5 26.5 0 0 0 4.16-7.818 24 24 0 0 1-1.525 2.235l-.004.005a23.813 23.813 0 0 1-33.401 4.286 23.813 23.813 0 0 1-4.29-33.4 23.8 23.8 0 0 1 10.182-7.58z" style="fill:#de6449;fill-opacity:1;stroke:#cbe6ad;stroke-width:0" transform="translate(-214.845 -82.782)"/></svg>