<svg xmlns="http://www.w3.org/2000/svg" width="99.989" height="99.996" viewBox="0 0 26.455 26.457"><path d="M965.021-25.385a13.23 13.23 0 0 0-9.723 5.122A13.23 13.23 0 0 0 957.68-1.71a13.23 13.23 0 0 0 18.555-2.381v-.003a13.23 13.23 0 0 0-2.385-18.555 13.23 13.23 0 0 0-8.83-2.737zm.045 1.021a12.239 12.206 0 0 1 8.17 2.526 12.239 12.206 0 0 1 2.207 17.12v.003a12.239 12.206 0 0 1-17.166 2.197 12.239 12.206 0 0 1-2.205-17.12 12.239 12.206 0 0 1 8.997-4.726zm7.55 4.394-9.348 10.777-4.593-3.984-2.332 2.688 7.281 6.317.01-.008 11.674-13.458zm.058.817 1.867 1.62-10.95 12.624-1.868-1.62-4.634-4.02 1.62-1.866 4.634 4.02z" style="fill:#000;fill-opacity:1;stroke:#36e6ad;stroke-width:0" transform="translate(-952.538 25.406)"/></svg>