<svg xmlns="http://www.w3.org/2000/svg" width="99.995" height="99.997" viewBox="0 0 26.457 26.457"><path d="M1365.42-32.93v26.456h26.458V-32.93zm1.694 1.59h23.2v23.198h-23.2zm17.933 2.964-6.306 6.333-6.318-6.293-1.757 1.764 6.318 6.293-6.345 6.37 1.764 1.757 6.345-6.37 6.384 6.357 1.757-1.764-6.384-6.358 6.306-6.332zm-.033.875.914.917-3.252 3.238-3.05 3.062 3.319 3.305 3.042 3.03-.913.917-3.275-3.262-3.086-3.073-3.04 3.051-.046.048-.212.212-3.014 3.002-.914-.917 3.264-3.251 3.046-3.059-2.993-2.981-3.275-3.261.913-.917 2.984 2.972 3.284 3.27 3.03-3.042.042-.04.207-.209v.001z" style="opacity:.945792;fill:#000;fill-opacity:1;stroke:#000;stroke-width:0" transform="translate(-1365.42 32.93)"/></svg>