<svg xmlns="http://www.w3.org/2000/svg" width="100" height="74.265" viewBox="0 0 26.458 19.649"><path d="M1331.25-27v9.03l-2.491-2.46-2.455 2.487 6.733 6.647.01-.007 2.373-2.404.074-.075 4.143-4.196-2.487-2.455-2.403 2.435V-27zm.643.48h2.233v10.053l2.919-2.95 1.588 1.573-2.93 2.962-1.1 1.114.01.002-1.572 1.59-.01-.006-.382-.378-5.28-5.217 1.57-1.59 2.954 2.919zm.01 10.075.01.003v-.003zm-12.105 5.826v3.268h26.458v-3.268zm.793.625h24.717v2.06h-24.717z" style="fill:#000;fill-opacity:1;stroke:#36e6ad;stroke-width:0" transform="translate(-1319.798 27)"/></svg>