<svg xmlns="http://www.w3.org/2000/svg" width="103.11" height="86.435" viewBox="0 0 27.281 22.869"><g style="fill:#000;stroke-width:0;stroke-dasharray:none"><path d="M1068.066-233.89v4.409h26.456v-4.408zm1.075.629h24.133v3.083h-24.133zm-1.074 8.192v4.404h26.457v-4.404zm1.076.627h24.132v3.08h-24.132zm-1.076 8.194v4.405h26.456v-4.405zm1.076.628h24.132v3.08h-24.132z" style="color:#000;fill:#000;stroke-width:0;stroke-dasharray:none" transform="translate(-1067.654 234.3)"/><path d="M1067.654-234.3v5.23h27.28v-5.23zm.824.823h.25v3.585h-.25zm25.207 0h.424v3.584h-.423zm-24.132.627h23.308v2.26h-23.308zm-1.897 7.37v5.226h27.28v-5.226zm.822.822h.252v3.582h-.252zm25.21 0h.423v3.582h-.424zm-24.133.629h23.308v2.256h-23.308zm-1.9 7.369v5.228h27.28v-5.228zm.823.824h.252v3.582h-.252zm25.21 0h.423v3.582h-.424zm-24.133.629h23.308v2.256h-23.308z" style="color:#000;fill:#000;stroke-width:0;stroke-dasharray:none" transform="translate(-1067.654 234.3)"/></g></svg>