<svg xmlns="http://www.w3.org/2000/svg" width="100" height="105.256" viewBox="0 0 26.458 27.849"><g style="fill:#000"><path d="M1288.802-556.536a22.4 22.4 0 0 0-16.461 8.67 22.394 22.394 0 0 0 4.034 31.412 22.394 22.394 0 0 0 31.41-4.032v-.005a22.4 22.4 0 0 0 1.778-2.683 21.083 27.2 65.529 0 1-9.375.44 21.083 27.2 65.529 0 1-16.71-24.886 21.083 27.2 65.529 0 1 5.714-8.91l-.393-.005zm-2.498 1.792a18.492 22.428 43.089 0 0-.01.016 19.138 18.363 78.936 0 0-2.522 2.851 19.138 18.363 78.936 0 0-1.379 19.75l-.059.016a20.729 16.208 1.385 0 0 1.332 2.233 19.138 18.363 78.936 0 0 .136.225l.018-.008a20.729 16.208 1.385 0 0 4.866 4.564 20.729 16.208 1.385 0 0 17.765 3.26 16.771 23.641 74.545 0 0 .873-.094 19.742 17.563 1.385 0 1-1.618 2.065v.004a19.742 17.563 1.385 0 1-27.76 2.492 19.742 17.563 1.385 0 1-4.62-4.93l-.017.009a20.707 17.515 88.417 0 1-.129-.243 19.742 17.563 1.385 0 1-1.262-2.416l.058-.018a20.707 17.515 88.417 0 1 1.376-21.403 20.707 17.515 88.417 0 1 12.649-8.37 20.707 17.515 88.417 0 1 .304-.003z" style="color:#000;fill:#000;-inkscape-stroke:none" transform="translate(-767.95 337.67)scale(.60608)"/><path d="M1288.768-557.135c-.036.002-.07.016-.106.018v-.002.002a23 23 0 0 0-16.795 8.885c-7.758 10.044-5.902 24.493 4.143 32.252 10.044 7.758 24.492 5.904 32.252-4.14l.125-.161v-.03c.62-.82 1.196-1.672 1.7-2.568l.641-1.137-1.28.254c-3.12.62-6.235.764-9.19.432-6.738-.76-11.874-3.852-14.79-8.193-2.915-4.342-3.637-9.949-1.425-15.887 1.163-3.082 3.066-6.055 5.586-8.707l.935-.983-1.357-.029-.404-.006.047.408-.031-.076zm-.934 1.364c-.264.306-.492.627-.74.94l.355-.517-.847.002v-.054l-.659.062c-1.034.098-2.028.38-3.015.678a21.6 21.6 0 0 1 4.906-1.111m-1.459 1.851c-1.42 1.945-2.656 3.963-3.457 6.088v.002c-2.328 6.252-1.578 12.311 1.555 16.977 3.066 4.566 8.412 7.748 15.23 8.626-3.86-.327-7.6-1.418-10.687-3.373-1.906-1.241-3.5-2.739-4.707-4.412l-.125-.174-.014-.021-.014-.021c-.355-.495-.633-1.017-.916-1.536l-.307-.627c-3.03-6.198-2.512-13.582 1.332-19.142v-.002c.623-.87 1.349-1.647 2.11-2.385m-1.66.076c-.483.535-1.008 1.028-1.43 1.617v.008c-3.964 5.733-4.525 13.236-1.65 19.682l-.147.041.313.647c.387.8.848 1.577 1.383 2.322l.113.187.273.45.1-.045a18.9 18.9 0 0 0 4.694 4.341v.004c4.986 3.16 11.434 4.359 17.625 3.393-.244.308-.46.634-.727.928l-.02.021c-6.63 7.25-18.724 8.338-26.945 2.39-1.806-1.336-3.318-2.95-4.465-4.763l-.121-.19-.01-.01-.01-.01-.014-.022c-.352-.56-.63-1.15-.908-1.739l.01-.002-.262-.61c-2.877-6.732-2.354-14.797 1.336-20.853v-.002c2.613-4.252 6.532-6.952 10.85-7.785zm-3.944.04c-.477.223-.955.444-1.414.714.463-.262.934-.487 1.414-.715m-2.99 1.77c-1.892 1.416-3.602 3.172-4.94 5.349v.002c-3.797 6.23-4.348 14.35-1.6 21.316l-.132.04.258.61a17.4 17.4 0 0 0 1.307 2.502q.053.105.107.207l.276.514.103-.05a19 19 0 0 0 4.432 4.655v.004c7.444 5.386 17.772 5.31 25.049.383-7.617 5.423-18.117 5.587-25.903-.428-9.53-7.361-11.287-21.038-3.926-30.57 1.399-1.81 3.12-3.265 4.965-4.533zm23.131 29.92c.425.037.861.022 1.291.04-.434.006-.858-.023-1.29-.04m6.762.708c-.129.178-.23.375-.364.549l-.023.03c-.116.152-.264.26-.384.407.26-.327.536-.644.771-.986m-2.584 2.898a22 22 0 0 1-1.496 1.338c.529-.405 1.008-.877 1.496-1.338" style="color:#000;fill:#000;-inkscape-stroke:none" transform="translate(-767.95 337.67)scale(.60608)"/></g></svg>