<svg xmlns="http://www.w3.org/2000/svg" width="100" height="100.003" viewBox="0 0 26.458 26.459"><g style="fill:#000"><path d="m1218.723-559.976-5.696 8.085-8.974-4.154-.89 9.85-9.85.89 4.155 8.973-8.085 5.695 8.085 5.696-4.154 8.974 9.849.89.89 9.85 8.974-4.154 5.696 8.084 5.695-8.084 8.974 4.153.89-9.849 9.85-.89-4.155-8.974 8.085-5.696-8.085-5.695 4.154-8.974-9.85-.89-.889-9.85-8.974 4.155zm0 2.25 5.004 7.103a20 20 0 0 1 .493.106l7.85-3.634.773 8.56a20 20 0 0 1 .43.437l8.567.774-3.6 7.778a20 20 0 0 1 .164.63l7.012 4.939-6.975 4.913a20 20 0 0 1-.186.688l3.585 7.746-8.548.772a20 20 0 0 1-.454.493l-.769 8.505-7.753-3.588a20 20 0 0 1-.7.217l-4.893 6.948-4.908-6.966a20 20 0 0 1-.751-.17l-7.688 3.56-.767-8.488a20 20 0 0 1-.566-.52l-8.438-.763 3.59-7.755a20 20 0 0 1-.219-.698l-6.947-4.894 7.018-4.945a20 20 0 0 1 .147-.65l-3.589-7.752 8.59-.776a20 20 0 0 1 .408-.443l.773-8.552 7.854 3.636a20 20 0 0 1 .534-.173zm-1.151 7.395a19.36 19.36 0 0 0-14.232 7.496 19.36 19.36 0 0 0 3.488 27.156 19.36 19.36 0 0 0 27.156-3.485v-.004a19.36 19.36 0 0 0-3.491-27.156 19.36 19.36 0 0 0-12.925-4.007zm.124 1.497a17.8 17.8 0 0 1 11.887 3.685 17.807 17.807 0 0 1 3.211 24.976v.004a17.807 17.807 0 0 1-24.977 3.205 17.807 17.807 0 0 1-3.207-24.976 17.8 17.8 0 0 1 13.09-6.893z" style="color:#000;fill:#000;-inkscape-stroke:none" transform="translate(-517.457 244.292)scale(.43544)"/><path d="m1218.723-561.018-.49.696-5.409 7.676-9.293-4.301-.922 10.199-10.197.922 4.3 9.293-8.37 5.896 8.37 5.899-4.3 9.293 10.197.922.922 10.197 9.293-4.301 5.899 8.373 5.898-8.373 9.291 4.3.922-10.196 10.2-.922-4.302-9.293 8.372-5.899-8.372-5.896 4.301-9.293-10.199-.922-.922-10.2-9.29 4.302zm0 2.082 5.47 7.77-.045.02-.066-.014-5.359-7.61-.49.698-4.844 6.875-.121.039-.018-.008zm0 2.25 4.453 6.32c-1.835-.427-3.716-.67-5.625-.564h-.01c-1.108.063-2.18.298-3.246.54zm-14.149 1.543.278.13-.829 9.158q-.057.06-.11.123l-.192.015zm28.297 0 .852 9.426-.178-.015-.125-.127-.826-9.155zm-26.975 1.895 6.932 3.209c-2.839.87-5.424 2.38-7.619 4.396zm25.65 0 .704 7.766c-.466-.438-.874-.918-1.39-1.317a20 20 0 0 0-6.235-3.244zm-13.944 3.516a18.76 18.76 0 0 1 12.521 3.882c8.206 6.337 9.72 18.108 3.383 26.315l-.016.021c-6.342 8.188-18.1 9.693-26.299 3.36-8.205-6.338-9.718-18.11-3.38-26.315a18.76 18.76 0 0 1 13.775-7.261l.01-.002zm.06.298v.002a18.4 18.4 0 0 0-13.527 7.125c-6.209 8.04-4.722 19.609 3.317 25.819s19.608 4.724 25.818-3.315l.125-.162v-.043c6.038-8.031 4.531-19.458-3.445-25.617a18.4 18.4 0 0 0-12.178-3.805c-.036.002-.071-.006-.107-.004zm.069 1.2a17.2 17.2 0 0 1 11.484 3.56c7.527 5.812 8.914 16.608 3.102 24.135l-.016.021c-5.818 7.51-16.6 8.89-24.12 3.08-7.525-5.813-8.91-16.608-3.097-24.134a17.2 17.2 0 0 1 12.644-6.662zm-22.997 3.402 3.829 8.273-.05.223-.29.205-4.008-8.654zm47.977 0 .518.047-4.006 8.656-.295-.209-.055-.207zm-9.48.277 7.707.696-3.239 6.994c-.865-2.82-2.375-5.441-4.468-7.69m-29.069.004c-.427.457-.91.85-1.297 1.35-1.48 1.916-2.489 4.033-3.175 6.217l-3.182-6.875zm33.844 9.032 6.37 4.486-6.302 4.437c.668-2.96.612-6-.068-8.923m-38.762.136c-.649 2.893-.605 5.859.033 8.721l-6.207-4.371zm-8.258 4.35 7.479 5.267.088.284-3.85 8.316 9.084.822q.122.115.246.227l.823 9.103 8.277-3.83q.162.039.324.073l5.266 7.474 5.267-7.478.282-.088 8.318 3.85.828-9.153.158-.172 9.166-.828-3.851-8.318.074-.27 7.492-5.28.564.397-7.798 5.495 4.005 8.654-9.5.86-.857 9.5-8.656-4.009-5.492 7.8-5.493-7.8-8.656 4.008-.86-9.5-9.5-.86 4.009-8.653-7.8-5.495zm46.713 5.832 3.239 6.994-7.696.695c.402-.434.848-.808 1.217-1.285l.125-.162v-.043c1.445-1.918 2.454-4.022 3.115-6.2m-38.047.197c.86 2.736 2.334 5.28 4.354 7.475l-7.498-.678zm32.584 8.553-.689 7.633-6.863-3.176c2.772-.874 5.34-2.391 7.552-4.457m-27.023.066c.423.39.784.824 1.248 1.182 1.942 1.5 4.088 2.52 6.303 3.205l-6.867 3.18zm17.92 4.743-4.41 6.261-4.362-6.19c2.913.641 5.897.59 8.772-.072" style="color:#000;fill:#000;-inkscape-stroke:none" transform="translate(-517.457 244.292)scale(.43544)"/></g></svg>