<svg xmlns="http://www.w3.org/2000/svg" width="248.197" height="248.174" viewBox="0 0 65.669 65.663"><path d="M1077.306-407.493a32.83 32.83 0 0 0-24.133 12.71 32.83 32.83 0 0 0 5.913 46.05 32.83 32.83 0 0 0 46.05-5.91l.01-.008a32.83 32.83 0 0 0-5.92-46.049 32.83 32.83 0 0 0-21.916-6.794zm.148 2.296a30.492 30.492 0 0 1 20.356 6.31 30.492 30.492 0 0 1 5.498 42.768l-.01.007a30.492 30.492 0 0 1-42.77 5.49 30.492 30.492 0 0 1-5.492-42.77 30.492 30.492 0 0 1 22.414-11.805zm.108 2.354a28.21 28.136 0 0 0-20.736 10.893 28.21 28.136 0 0 0 5.081 39.464 28.21 28.136 0 0 0 39.57-5.065v-.006a28.21 28.136 0 0 0-5.086-39.464 28.21 28.136 0 0 0-18.828-5.823zm18.188 9.058 6.594 5.72-28.63 33.006-.016.019-17.858-15.49 5.72-6.594 11.263 9.77zm.141 2.006-22.885 26.383-11.366-9.86-3.972 4.58 11.365 9.859 4.58 3.972 26.857-30.962z" style="fill:#cbe6ad;fill-opacity:1;stroke:#36e6ad;stroke-width:0" transform="translate(-1046.324 407.546)"/></svg>