<svg xmlns="http://www.w3.org/2000/svg" width="99.998" height="68.37" viewBox="0 0 26.458 18.09"><path d="m1447.152 139.071-1.017 1.031-.015-.015-7.298 7.304-8.338-8.331-4.877 4.88 13.219 13.21.014-.015 11.569-11.578.019.018 1.637-1.66zm.051 1.477 3.412 3.365-.924.938.016.016-10.846 10.854-3.39-3.386-8.413-8.408 3.387-3.39 8.413 8.408 8.058-8.065-.02-.02zm.07.69-8.412 8.418-8.296-8.29-2.645 2.647 8.296 8.29 2.622 2.62 11.06-11.068z" style="fill:#000;fill-opacity:1;stroke:#36e6ad;stroke-width:0" transform="translate(-1425.607 -139.06)"/></svg>