<svg xmlns="http://www.w3.org/2000/svg" width="68.37" height="100" viewBox="0 0 18.09 26.458"><path d="m1508.65 155.882 1.032-1.017-.015-.015 7.304-7.298-8.332-8.337 4.881-4.878 13.209 13.22-.014.014-11.578 11.569.018.019-1.66 1.637zm1.478.051 3.365 3.412.938-.924.016.015 10.855-10.846-3.387-3.39v.001l-8.407-8.413-3.39 3.387 8.407 8.413-8.064 8.058-.02-.02zm.69.07 8.418-8.412-8.29-8.296 2.647-2.645 8.29 8.297 2.62 2.621-11.068 11.06z" style="fill:#000;fill-opacity:1;stroke:#36e6ad;stroke-width:0" transform="translate(-1508.64 -134.337)"/></svg>