<svg xmlns="http://www.w3.org/2000/svg" width="68.37" height="100" viewBox="0 0 18.09 26.458"><path d="m1558.53 154.762-1.032-1.016.015-.015-7.303-7.298 8.33-8.338-4.88-4.877-13.209 13.219.014.014 11.578 11.569-.019.02 1.66 1.636zm-1.478.052-3.365 3.412-.938-.925-.015.016-10.855-10.846 3.387-3.39 8.407-8.413 3.39 3.387-8.407 8.414 8.065 8.057.02-.02zm-.69.07-8.418-8.412 8.29-8.297-2.647-2.645-8.29 8.297-2.62 2.622 11.068 11.06z" style="fill:#000;fill-opacity:1;stroke:#36e6ad;stroke-width:0" transform="translate(-1540.451 -133.218)"/></svg>