<svg xmlns="http://www.w3.org/2000/svg" width="100" height="100" viewBox="0 0 26.458 26.458"><path d="M1375.88 132.16v26.458h26.458v-26.459zm3.159 2.638h20.364v20.735h-20.364zm1.43 1.19v17.81h17.49v-17.81zm15.07.864 1.763 1.757-6.306 6.332 6.384 6.358-1.757 1.764-6.384-6.358-6.345 6.372-1.764-1.757 6.345-6.372-6.319-6.293 1.757-1.764 6.32 6.293zm-.034.874-2.599 2.59-.033-.034-.01.003.034.034-.421.42v-.001l-.207.208-.042.04v.001l-3.03 3.043-3.285-3.271-.384-.382.07-.07 3.636 3.622v-.002l-3.635-3.623-.071.071-2.6-2.59-.913.918 2.6 2.589-.027.027v.002l.028-.028.674.672 2.994 2.981-3.046 3.059-.637.634-.028-.028.028.028-2.627 2.617.914.917 2.63-2.62.071.07 3.653-3.667v-.001l-3.652 3.666-.069-.069.384-.382v.001l.212-.213.047-.047 3.039-3.051 3.086 3.073.654.651-.028.028.01.003.027-.026 2.616 2.606.914-.918-2.617-2.605.072-.072-3.676-3.661 3.631-3.646-.066-.066 2.596-2.585zm-1.686 3.507.063.063-3.63 3.644 3.675 3.659-.07.07-.421-.42-3.318-3.306 3.05-3.062z" style="opacity:.945792;fill:#000;fill-opacity:1;stroke:#000;stroke-width:0" transform="translate(-1375.88 -132.16)"/></svg>