<svg xmlns="http://www.w3.org/2000/svg" width="100.008" height="69.887" viewBox="0 0 26.46 18.491"><path d="m1245.145 139.31-.179.176-6.825 6.727a1.836 1.928 2.445 0 0-.45-.018 1.836 1.928 2.445 0 0-1.16.583 1.836 1.928 2.445 0 0-.511 1.51 1.836 1.928 2.445 0 0 0 .014l-7.03 6.928 2.535 2.571 7.244-7.14a1.708 1.718 34.008 0 0 .072.003 1.708 1.718 34.008 0 0 1.111-.448 1.708 1.718 34.008 0 0 .564-1.276l7.161-7.057zm-.88 1.815 1.558 1.58-13.452 13.258-1.558-1.58zm-.093.347-12.96 12.75 1.304 1.347 12.96-12.75zm-5.898.992c-2.55.014-5.6.875-10.251 3.246-1.057.539-1.823 1.032-2.292 1.558-.47.525-.62 1.14-.364 1.726.255.587.846 1.14 1.768 1.76s2.184 1.3 3.812 2.09l.159.077 1.03-1.016-.316-.155c-1.352-.663-2.392-1.236-3.126-1.742s-1.15-.949-1.291-1.3c-.14-.35-.074-.624.264-.996.338-.371.963-.787 1.85-1.239 4.033-2.056 6.624-2.774 8.75-2.786a9.7 9.7 0 0 1 1.871.178l.129.024 1.062-1.046-.452-.097a11.8 11.8 0 0 0-2.602-.282zm.01 1.476c-2.019.012-4.454.678-8.201 2.547-3.354 1.673-2.89 2.787 2.25 5.237l2.371-2.33a3.693 3.612 0 0 1 .616-3.124 3.693 3.612 0 0 1 2.715-1.399 3.693 3.612 0 0 1 1.124.141l.92-.903a9.4 9.4 0 0 0-1.794-.169zm7.532.008-.425.419-.897.883.369.137c.134.05.267.1.417.153 1.608.567 2.708 1.09 3.38 1.566.67.476.89.873.876 1.235s-.291.783-.823 1.25c-.532.468-1.297.97-2.192 1.512l-.01.005c-2.514 1.518-6.353 2.433-9.93 2.067l-.117-.013-1.127 1.112.509.065c4.351.56 9.044-.516 12.149-2.396l.12-.073v-.011c.973-.593 1.839-1.152 2.464-1.702.657-.577 1.097-1.16 1.123-1.812.026-.651-.387-1.274-1.228-1.871s-2.132-1.203-3.996-1.861c-.235-.083-.445-.162-.664-.243zm-7.741 1.065v.072l-.01.002v-.073a3.47 3.47 0 0 0-2.553 1.345v.001a3.48 3.48 0 0 0-.696 2.333l.037.544.87-.859.01-.096c.03-.497.2-.974.496-1.374a2.57 2.57 0 0 1 1.88-.992l.11.007.827-.816-.509-.066a4 4 0 0 0-.453-.028zm6.242.426-2.444 2.403a3.693 3.612 0 0 1-.71 2.843v.001a3.693 3.612 0 0 1-3.536 1.331l-.974.958c3.381.35 6.996-.487 9.386-1.902 3.33-1.973 4.804-3.373-1.19-5.443-.19-.066-.359-.128-.532-.19zm-2.59 2.539-.425.418-.532.526-.014.075a2.6 2.6 0 0 1-.474 1.052v.001a2.57 2.57 0 0 1-1.526.916l-.075.015-.971.957.622-.01a3.47 3.47 0 0 0 2.674-1.32l.054-.068v-.03c.407-.565.65-1.232.67-1.93v-.006z" style="fill:#000;fill-opacity:1;stroke:#000;stroke-width:0;stroke-dasharray:none" transform="translate(-1225.243 -139.31)"/></svg>