<svg xmlns="http://www.w3.org/2000/svg" width="100.002" height="106.829" viewBox="0 0 26.459 28.265"><path d="M1133.778 135.706a14.14 14.14 0 0 0-10.397 5.475 14.143 14.143 0 0 0 2.548 19.839 14.143 14.143 0 0 0 19.838-2.546v-.003a14 14 0 0 0 1.122-1.695 13.316 17.179 65.529 0 1-5.92.278 13.316 17.179 65.529 0 1-10.554-15.718 13.316 17.179 65.529 0 1 3.609-5.627l-.249-.003zm-1.578 1.131a11.679 14.165 43.089 0 0-.01.01 12.087 11.598 78.936 0 0-1.593 1.801 12.087 11.598 78.936 0 0-.87 12.473l-.038.01a13.092 10.236 1.385 0 0 .841 1.411 12.087 11.598 78.936 0 0 .086.142l.011-.005a13.092 10.236 1.385 0 0 3.073 2.882 13.092 10.236 1.385 0 0 11.22 2.06 10.592 14.93 74.545 0 0 .552-.06 12.469 11.092 1.385 0 1-1.022 1.304v.003a12.469 11.092 1.385 0 1-17.532 1.574 12.469 11.092 1.385 0 1-2.918-3.114l-.011.006a13.078 11.062 88.417 0 1-.081-.153 12.469 11.092 1.385 0 1-.797-1.526l.037-.011a13.078 11.062 88.417 0 1 .87-13.517 13.078 11.062 88.417 0 1 7.988-5.287 13.078 11.062 88.417 0 1 .191-.002zm-1.936.883a8.923 12.073 1.805 0 0-5.571 4.378 8.923 12.073 1.805 0 0-1.349 12.28l.041-.02a10.348 10.663 20.087 0 0 .47 1.451l-.035.008a11.697 9.018.617 0 0 .667 1.268 10.348 10.663 20.087 0 0 .068.127l.01-.004a11.697 9.018.617 0 0 2.572 2.632 11.697 9.018.617 0 0 16.515-.646v-.003a11.697 9.018.617 0 0 1.026-1.022 8.632 13.974 80.607 0 1-.52.028 12.278 8.325 1.786 0 1-2.106.1 12.395 9.245 1.855 0 1-9.551-2.563 12.395 9.245 1.855 0 1-2.653-2.766l-.01.004a10.82 11.077 59.437 0 1-.069-.132 12.395 9.245 1.855 0 1-.671-1.317l.037-.007a10.82 11.077 59.437 0 1-.459-1.5l-.044.02a9.454 12.378 3.7 0 1 1.632-12.316z" style="fill:#000;fill-opacity:1;stroke:#36e6ad;stroke-width:0" transform="translate(-1120.43 -135.706)"/></svg>