<svg xmlns="http://www.w3.org/2000/svg" width="100" height="100" viewBox="0 0 26.458 26.458"><path d="m1074.223 136.511-2.568 3.646-4.047-1.874-.4 4.442-4.442.4 1.873 4.047-3.645 2.568 3.645 2.568-1.873 4.047 4.441.401.401 4.441 4.047-1.873 2.568 3.646 2.568-3.646 4.047 1.873.4-4.44 4.442-.402-1.873-4.047 3.645-2.568-3.645-2.568 1.873-4.046-4.441-.401-.401-4.442-4.047 1.874zm0 1.014 2.257 3.203.222.048 3.54-1.638.348 3.859a9 9 0 0 1 .194.197l3.863.35-1.624 3.507a9 9 0 0 1 .074.283l3.162 2.227-3.145 2.216a9 9 0 0 1-.084.31l1.617 3.492-3.855.349a9 9 0 0 1-.205.222l-.346 3.835-3.496-1.618a9 9 0 0 1-.315.098l-2.207 3.133-2.213-3.141a9 9 0 0 1-.339-.077l-3.466 1.605-.346-3.827a9 9 0 0 1-.255-.235l-3.805-.344 1.619-3.496a9 9 0 0 1-.098-.315l-3.133-2.207 3.165-2.23a9 9 0 0 1 .066-.292l-1.618-3.496 3.873-.35a9 9 0 0 1 .184-.2l.348-3.855 3.542 1.64.24-.079zm-.018.413-2.26 3.21-3.564-1.65-.353 3.91-3.91.354 1.65 3.563-3.21 2.26 3.21 2.262-1.65 3.562 3.91.354.353 3.91 3.563-1.65 2.261 3.21 2.261-3.21 3.563 1.65.353-3.91 3.91-.354-1.65-3.562 3.21-2.261-3.21-2.261 1.65-3.563-3.91-.353-.353-3.91-3.563 1.649zm-.444 3.597a8.03 8.03 0 0 1 5.36 1.661 8.03 8.03 0 0 1 2.84 8.451l-.07.243-.01.025a8.1 8.1 0 0 1-1.298 2.47v.002a8.076 8.076 0 0 1-11.328 1.454 8 8 0 0 1-1.03-.95 8.03 8.03 0 0 1-.367-10.247 8.03 8.03 0 0 1 5.902-3.109zm.049.953a7.07 7.07 0 0 0-5.197 2.737 7.07 7.07 0 0 0 1.273 9.915 7.07 7.07 0 0 0 9.916-1.272v-.001a7.07 7.07 0 0 0-1.274-9.916 7.07 7.07 0 0 0-4.72-1.463z" style="fill:#000;fill-opacity:1;stroke:#36e6ad;stroke-width:0" transform="translate(-1060.994 -136.511)"/></svg>